<?xml version="1.0" encoding="UTF-8" standalone="no"?>
<!-- Created with Inkscape (http://www.inkscape.org/) -->

<svg
   xmlns:dc="http://purl.org/dc/elements/1.1/"
   xmlns:cc="http://creativecommons.org/ns#"
   xmlns:rdf="http://www.w3.org/1999/02/22-rdf-syntax-ns#"
   xmlns:svg="http://www.w3.org/2000/svg"
   xmlns="http://www.w3.org/2000/svg"
   xmlns:sodipodi="http://sodipodi.sourceforge.net/DTD/sodipodi-0.dtd"
   xmlns:inkscape="http://www.inkscape.org/namespaces/inkscape"
   width="22.200001cm"
   height="5.2999902cm"
   viewBox="0 0 222 52.999903"
   version="1.1"
   id="svg8"
   inkscape:version="0.92.3 (2405546, 2018-03-11)"
   sodipodi:docname="cloudify-logo.svg"
   inkscape:export-filename="C:\Users\xeric\Documents\PIB\PIB Cloudify\Simple-Music-Recommender-System\static\images\test2.png"
   inkscape:export-xdpi="96"
   inkscape:export-ydpi="96">
  <defs
     id="defs2" />
  <sodipodi:namedview
     id="base"
     pagecolor="#ffffff"
     bordercolor="#666666"
     borderopacity="1.0"
     inkscape:pageopacity="0.0"
     inkscape:pageshadow="2"
     inkscape:zoom="0.98994949"
     inkscape:cx="496.87066"
     inkscape:cy="125.07191"
     inkscape:document-units="mm"
     inkscape:current-layer="layer1"
     showgrid="false"
     units="cm"
     inkscape:window-width="1536"
     inkscape:window-height="811"
     inkscape:window-x="1592"
     inkscape:window-y="-8"
     inkscape:window-maximized="1" />
  <metadata
     id="metadata5">
    <rdf:RDF>
      <cc:Work
         rdf:about="">
        <dc:format>image/svg+xml</dc:format>
        <dc:type
           rdf:resource="http://purl.org/dc/dcmitype/StillImage" />
        <dc:title />
      </cc:Work>
    </rdf:RDF>
  </metadata>
  <g
     inkscape:label="Layer 1"
     inkscape:groupmode="layer"
     id="layer1"
     transform="translate(0,-244.00011)">
    <rect
       style="fill:#fffbff;fill-opacity:1;fill-rule:nonzero;stroke-width:10.94581318;stroke-miterlimit:4;stroke-dasharray:none"
       id="rect827"
       width="30.468727"
       height="21.381561"
       x="23.786987"
       y="264.6604" />
    <text
       xml:space="preserve"
       style="font-style:normal;font-weight:normal;font-size:3.52777767px;line-height:60;font-family:sans-serif;letter-spacing:0px;word-spacing:0px;fill:#000000;fill-opacity:1;stroke:none;stroke-width:0.26458332"
       x="83.789001"
       y="139.17734"
       id="text4579"><tspan
         sodipodi:role="line"
         id="tspan4577"
         x="83.789001"
         y="246.02431"
         style="line-height:60;stroke-width:0.26458332" /></text>
    <g
       id="g4616"
       transform="translate(15.848138,71.524608)">
      <path
         inkscape:connector-curvature="0"
         id="path4575"
         d="m 0.63629869,224.91129 c -3.95956799,-0.10372 -4.76116569,-0.1693 -5.81604819,-0.47604 -4.8812025,-1.4194 -8.2114125,-4.69058 -9.6523765,-9.48127 -0.604792,-2.01072 -0.642375,-5.07401 -0.08964,-7.30587 0.681465,-2.75164 2.409353,-5.78209 4.074204,-7.14555 1.337704,-1.09553 3.1234635,-2.14288 4.7575323,-2.79029 l 1.632784,-0.64691 0.1305058,-2.31221 c 0.071782,-1.2717 0.2385273,-2.69146 0.3705527,-3.15501 0.4780056,-1.67831 2.2770752,-3.93102 4.11282443,-5.14989 1.50220067,-0.99741 2.50508497,-1.30867 4.50943327,-1.39959 2.171529,-0.0985 3.566823,0.12802 5.5413545,0.89959 0.823334,0.32173 1.551518,0.52392 1.618192,0.44931 0.06667,-0.0746 0.502771,-0.70807 0.969097,-1.40769 2.492498,-3.73943 4.710813,-5.74457 8.123816,-7.34311 2.561203,-1.19959 4.913609,-1.68008 8.205178,-1.67593 5.471344,0.006 9.483956,1.72479 13.365814,5.72228 3.191907,3.287 5.099562,7.48256 5.393738,11.86259 0.06586,0.98052 0.207798,1.88885 0.315421,2.01854 0.107597,0.12968 0.719206,0.44119 1.359069,0.69223 3.715912,1.45788 6.871903,4.91992 8.158915,8.95009 0.586765,1.83737 0.759459,3.00935 0.750536,5.09354 -0.02262,5.29705 -2.14742,9.58204 -6.194399,12.49222 -1.536699,1.10505 -2.588921,1.52525 -4.473358,1.78648 -2.795957,0.38756 -36.006093,0.61465 -47.16315041,0.32249 z M 18.774983,213.95417 c 1.19761,-0.62151 1.223829,-0.71392 1.414306,-4.98467 0.0941,-2.11004 0.223418,-4.69896 0.28739,-5.75317 l 0.116345,-1.91673 2.588509,-0.711 c 1.423691,-0.39105 2.682461,-0.71214 2.797282,-0.71354 0.159672,-0.002 0.208747,0.73405 0.208747,3.13051 v 3.13305 l -1.210757,0.58272 c -1.457632,0.70155 -2.035311,1.413 -1.91213,2.3549 0.163734,1.25188 1.18154,2.07663 2.799156,2.26821 1.097911,0.13003 2.064667,-0.25265 2.97085,-1.17598 l 0.710971,-0.72443 -0.05074,-6.61461 c -0.03749,-4.87639 -0.103599,-6.66742 -0.251874,-6.81552 -0.156361,-0.15621 -0.472131,-0.15666 -1.419504,-0.002 -1.51773,0.2477 -6.798134,1.51953 -9.192742,2.21417 l -1.795261,0.52076 v 5.4059 5.40591 h -0.565632 c -0.722818,0 -2.059515,0.89099 -2.449496,1.63273 -0.54404,1.03477 0.05278,2.24847 1.428616,2.90524 0.853635,0.4075 2.602543,0.33686 3.526061,-0.1424 z"
         style="fill:#4267b2;fill-opacity:1;stroke:none;stroke-width:0.16745771;stroke-miterlimit:4;stroke-dasharray:0, 1.84203493;stroke-dashoffset:0;stroke-opacity:1" />
      <text
         id="text4583"
         y="209.47372"
         x="56.690777"
         style="font-style:normal;font-variant:normal;font-weight:normal;font-stretch:normal;font-size:35.27777863px;line-height:1;font-family:'Century Gothic';-inkscape-font-specification:'Century Gothic';letter-spacing:0px;word-spacing:0px;fill:#000000;fill-opacity:1;stroke:none;stroke-width:0.26458332"
         xml:space="preserve"><tspan
           style="font-style:normal;font-variant:normal;font-weight:normal;font-stretch:normal;font-size:35.27777863px;line-height:1;font-family:'Century Gothic';-inkscape-font-specification:'Century Gothic';fill:#ffffff;stroke-width:0.26458332"
           y="209.47372"
           x="56.690777"
           id="tspan4581"
           sodipodi:role="line">Cloudify</tspan><tspan
           id="tspan4585"
           style="font-style:normal;font-variant:normal;font-weight:normal;font-stretch:normal;font-size:35.27777863px;line-height:1;font-family:'Century Gothic';-inkscape-font-specification:'Century Gothic';stroke-width:0.26458332"
           y="244.7515"
           x="56.690777"
           sodipodi:role="line" /></text>
      <text
         id="text4583-5"
         y="223.12442"
         x="58.950321"
         style="font-style:normal;font-variant:normal;font-weight:normal;font-stretch:normal;font-size:9.87777805px;line-height:1;font-family:'Century Gothic';-inkscape-font-specification:'Century Gothic';letter-spacing:0px;word-spacing:0px;fill:#000000;fill-opacity:1;stroke:none;stroke-width:0.26458332"
         xml:space="preserve"><tspan
           id="tspan4585-8"
           style="font-style:normal;font-variant:normal;font-weight:normal;font-stretch:normal;font-size:9.87777805px;line-height:1;font-family:'Century Gothic';-inkscape-font-specification:'Century Gothic';fill:#ffffff;stroke-width:0.26458332"
           y="223.12442"
           x="58.950321"
           sodipodi:role="line">A simple recommender system</tspan></text>
    </g>
  </g>
</svg>
